<svg width="440" height="61" viewBox="0 0 440 61" fill="none" xmlns="http://www.w3.org/2000/svg">
<rect x="0.5" y="0.5" width="439" height="60" fill="white" stroke="black"/>
<g filter="url(#filter0_d)">
<rect x="131.997" y="13" width="29.7762" height="34.0132" fill="#E56020" fill-opacity="0.7"/>
</g>
<g filter="url(#filter1_d)">
<rect x="291" y="17" width="29.7762" height="34.0132" fill="#1D1160" fill-opacity="0.7"/>
</g>
<path d="M19.626 37.911H30.4337V42H14.536V17.2965H19.626V37.911ZM41.496 42.3393C38.804 42.3393 36.6096 41.5136 34.9129 39.8622C33.2276 38.2108 32.3849 36.0108 32.3849 33.2622V32.7871C32.3849 30.9434 32.7412 29.2976 33.4538 27.8498C34.1664 26.3907 35.1731 25.2709 36.4739 24.4904C37.786 23.6986 39.279 23.3027 40.9531 23.3027C43.4641 23.3027 45.4379 24.0945 46.8744 25.6781C48.3223 27.2616 49.0462 29.5069 49.0462 32.4138V34.4159H37.3561C37.5145 35.6149 37.9896 36.5763 38.7813 37.3002C39.5844 38.0241 40.5968 38.3861 41.8184 38.3861C43.7073 38.3861 45.1834 37.7018 46.2467 36.3331L48.6559 39.0308C47.9207 40.0715 46.9253 40.8859 45.6698 41.474C44.4143 42.0509 43.023 42.3393 41.496 42.3393ZM40.9361 27.2729C39.9633 27.2729 39.1716 27.601 38.5608 28.257C37.9613 28.913 37.5767 29.8519 37.407 31.0735H44.2276V30.6832C44.205 29.5974 43.9109 28.7603 43.3454 28.1722C42.7798 27.5727 41.9767 27.2729 40.9361 27.2729ZM51.1331 32.6853C51.1331 29.8688 51.8004 27.601 53.1351 25.8817C54.4812 24.1624 56.2909 23.3027 58.5645 23.3027C60.5778 23.3027 62.1444 23.9927 63.2642 25.3727L63.4678 23.6421H67.9131V41.3892C67.9131 42.9954 67.5455 44.3923 66.8103 45.58C66.0864 46.7676 65.0627 47.6725 63.7393 48.2946C62.4159 48.9167 60.8663 49.2278 59.0904 49.2278C57.7444 49.2278 56.4323 48.9563 55.1542 48.4134C53.876 47.8818 52.9089 47.1918 52.2529 46.3435L54.4246 43.3573C55.6462 44.726 57.128 45.4103 58.8699 45.4103C60.1706 45.4103 61.183 45.0597 61.9069 44.3584C62.6308 43.6684 62.9928 42.6843 62.9928 41.4062V40.4221C61.8617 41.7003 60.3742 42.3393 58.5305 42.3393C56.3249 42.3393 54.5377 41.4797 53.1691 39.7604C51.8117 38.0298 51.1331 35.7393 51.1331 32.8889V32.6853ZM56.0364 33.0416C56.0364 34.7043 56.3701 36.0108 57.0375 36.9609C57.7048 37.8997 58.621 38.3691 59.7861 38.3691C61.2791 38.3691 62.348 37.8092 62.9928 36.6894V28.9696C62.3367 27.8498 61.2791 27.2899 59.82 27.2899C58.6436 27.2899 57.7161 27.7706 57.0375 28.7321C56.3701 29.6935 56.0364 31.13 56.0364 33.0416ZM80.1461 42.3393C77.454 42.3393 75.2597 41.5136 73.563 39.8622C71.8776 38.2108 71.035 36.0108 71.035 33.2622V32.7871C71.035 30.9434 71.3913 29.2976 72.1039 27.8498C72.8165 26.3907 73.8232 25.2709 75.1239 24.4904C76.436 23.6986 77.9291 23.3027 79.6031 23.3027C82.1142 23.3027 84.088 24.0945 85.5245 25.6781C86.9723 27.2616 87.6962 29.5069 87.6962 32.4138V34.4159H76.0062C76.1646 35.6149 76.6396 36.5763 77.4314 37.3002C78.2345 38.0241 79.2468 38.3861 80.4684 38.3861C82.3574 38.3861 83.8335 37.7018 84.8967 36.3331L87.306 39.0308C86.5708 40.0715 85.5754 40.8859 84.3199 41.474C83.0643 42.0509 81.6731 42.3393 80.1461 42.3393ZM79.5862 27.2729C78.6134 27.2729 77.8216 27.601 77.2108 28.257C76.6113 28.913 76.2268 29.8519 76.0571 31.0735H82.8777V30.6832C82.8551 29.5974 82.561 28.7603 81.9954 28.1722C81.4299 27.5727 80.6268 27.2729 79.5862 27.2729ZM95.0089 23.6421L95.1616 25.7629C96.4737 24.1228 98.2325 23.3027 100.438 23.3027C102.384 23.3027 103.832 23.8739 104.782 25.0164C105.732 26.1588 106.218 27.8668 106.241 30.1403V42H101.337V30.2591C101.337 29.2184 101.111 28.4663 100.659 28.0025C100.206 27.5274 99.4541 27.2899 98.4022 27.2899C97.0222 27.2899 95.9873 27.8781 95.2973 29.0544V42H90.3939V23.6421H95.0089ZM109.21 32.6853C109.21 29.8236 109.849 27.5444 111.127 25.8477C112.417 24.1511 114.176 23.3027 116.404 23.3027C118.191 23.3027 119.667 23.9701 120.832 25.3048V15.9392H125.752V42H121.324L121.087 40.0488C119.865 41.5758 118.293 42.3393 116.37 42.3393C114.209 42.3393 112.473 41.491 111.161 39.7943C109.86 38.0864 109.21 35.7167 109.21 32.6853ZM114.113 33.0416C114.113 34.7609 114.413 36.0786 115.013 36.9948C115.612 37.911 116.483 38.3691 117.625 38.3691C119.141 38.3691 120.21 37.7301 120.832 36.4519V29.2071C120.221 27.929 119.164 27.2899 117.659 27.2899C115.295 27.2899 114.113 29.2071 114.113 33.0416Z" fill="black"/>
<path d="M172.649 36.6195V42H169.503V26.7291H175.46C176.607 26.7291 177.614 26.9388 178.481 27.3584C179.355 27.7779 180.026 28.3757 180.494 29.1519C180.963 29.921 181.197 30.7985 181.197 31.7844C181.197 33.2807 180.683 34.4624 179.655 35.3295C178.635 36.1895 177.219 36.6195 175.408 36.6195H172.649ZM172.649 34.0709H175.46C176.292 34.0709 176.925 33.8751 177.358 33.4835C177.799 33.092 178.019 32.5326 178.019 31.8054C178.019 31.0572 177.799 30.4524 177.358 29.9909C176.918 29.5294 176.31 29.2917 175.533 29.2777H172.649V34.0709ZM189.546 33.494C189.133 33.4381 188.77 33.4101 188.455 33.4101C187.308 33.4101 186.557 33.7982 186.2 34.5743V42H183.169V30.6517H186.032L186.116 32.0047C186.724 30.9628 187.567 30.4419 188.644 30.4419C188.979 30.4419 189.294 30.4874 189.588 30.5783L189.546 33.494ZM196.028 42.2098C194.363 42.2098 193.007 41.6993 191.958 40.6785C190.916 39.6576 190.395 38.2976 190.395 36.5985V36.3049C190.395 35.1651 190.616 34.1478 191.056 33.2528C191.497 32.3508 192.119 31.6586 192.923 31.1761C193.734 30.6866 194.657 30.4419 195.692 30.4419C197.244 30.4419 198.464 30.9314 199.352 31.9103C200.247 32.8892 200.695 34.2771 200.695 36.0741V37.3117H193.468C193.566 38.0529 193.86 38.6472 194.349 39.0947C194.846 39.5422 195.472 39.766 196.227 39.766C197.395 39.766 198.307 39.343 198.964 38.4969L200.454 40.1646C199.999 40.8078 199.384 41.3113 198.608 41.6749C197.832 42.0315 196.972 42.2098 196.028 42.2098ZM195.681 32.8962C195.08 32.8962 194.591 33.0989 194.213 33.5045C193.843 33.91 193.605 34.4904 193.5 35.2455H197.716V35.0043C197.702 34.3331 197.52 33.8156 197.171 33.4521C196.821 33.0815 196.325 32.8962 195.681 32.8962ZM208.32 36.6824H202.415V34.2387H208.32V36.6824ZM210.952 42V26.7291H216.301C218.154 26.7291 219.56 27.0857 220.518 27.7989C221.476 28.5051 221.955 29.5434 221.955 30.9139C221.955 31.6621 221.762 32.3228 221.378 32.8962C220.993 33.4625 220.458 33.8786 219.773 34.1443C220.556 34.3401 221.171 34.7351 221.619 35.3295C222.073 35.9238 222.301 36.651 222.301 37.511C222.301 38.9794 221.832 40.0911 220.895 40.8463C219.958 41.6014 218.623 41.986 216.889 42H210.952ZM214.099 35.3504V39.4723H216.794C217.536 39.4723 218.112 39.2975 218.525 38.9479C218.944 38.5913 219.154 38.1019 219.154 37.4796C219.154 36.0811 218.431 35.3714 216.983 35.3504H214.099ZM214.099 33.1269H216.427C218.015 33.0989 218.808 32.4662 218.808 31.2285C218.808 30.5363 218.605 30.0399 218.2 29.7392C217.801 29.4315 217.168 29.2777 216.301 29.2777H214.099V33.1269ZM231.268 40.8463C230.52 41.7553 229.485 42.2098 228.164 42.2098C226.947 42.2098 226.017 41.8602 225.374 41.1609C224.738 40.4617 224.412 39.4374 224.398 38.0879V30.6517H227.429V37.983C227.429 39.1647 227.968 39.7555 229.045 39.7555C230.073 39.7555 230.779 39.3989 231.163 38.6857V30.6517H234.205V42H231.352L231.268 40.8463ZM246.717 36.4307C246.717 38.2487 246.329 39.6681 245.553 40.689C244.777 41.7028 243.693 42.2098 242.302 42.2098C241.071 42.2098 240.089 41.7378 239.355 40.7938L239.218 42H236.491V25.89H239.522V31.669C240.222 30.851 241.141 30.4419 242.281 30.4419C243.665 30.4419 244.749 30.9523 245.532 31.9732C246.322 32.9871 246.717 34.417 246.717 36.2629V36.4307ZM243.686 36.2105C243.686 35.0638 243.505 34.2282 243.141 33.7038C242.777 33.1724 242.235 32.9067 241.515 32.9067C240.55 32.9067 239.886 33.3017 239.522 34.0918V38.5703C239.893 39.3674 240.564 39.766 241.536 39.766C242.515 39.766 243.158 39.2835 243.466 38.3186C243.613 37.8571 243.686 37.1544 243.686 36.2105ZM258.821 36.4307C258.821 38.2487 258.433 39.6681 257.657 40.689C256.881 41.7028 255.797 42.2098 254.405 42.2098C253.175 42.2098 252.192 41.7378 251.458 40.7938L251.322 42H248.595V25.89H251.626V31.669C252.325 30.851 253.245 30.4419 254.384 30.4419C255.769 30.4419 256.853 30.9523 257.636 31.9732C258.426 32.9871 258.821 34.417 258.821 36.2629V36.4307ZM255.79 36.2105C255.79 35.0638 255.608 34.2282 255.244 33.7038C254.881 33.1724 254.339 32.9067 253.619 32.9067C252.654 32.9067 251.99 33.3017 251.626 34.0918V38.5703C251.997 39.3674 252.668 39.766 253.64 39.766C254.619 39.766 255.262 39.2835 255.57 38.3186C255.716 37.8571 255.79 37.1544 255.79 36.2105ZM263.897 42H260.856V25.89H263.897V42ZM271.627 42.2098C269.963 42.2098 268.606 41.6993 267.558 40.6785C266.516 39.6576 265.995 38.2976 265.995 36.5985V36.3049C265.995 35.1651 266.215 34.1478 266.656 33.2528C267.096 32.3508 267.718 31.6586 268.523 31.1761C269.334 30.6866 270.257 30.4419 271.291 30.4419C272.844 30.4419 274.064 30.9314 274.952 31.9103C275.847 32.8892 276.294 34.2771 276.294 36.0741V37.3117H269.068C269.166 38.0529 269.46 38.6472 269.949 39.0947C270.445 39.5422 271.071 39.766 271.826 39.766C272.994 39.766 273.907 39.343 274.564 38.4969L276.053 40.1646C275.599 40.8078 274.983 41.3113 274.207 41.6749C273.431 42.0315 272.571 42.2098 271.627 42.2098ZM271.281 32.8962C270.68 32.8962 270.19 33.0989 269.813 33.5045C269.442 33.91 269.204 34.4904 269.099 35.2455H273.316V35.0043C273.302 34.3331 273.12 33.8156 272.77 33.4521C272.421 33.0815 271.924 32.8962 271.281 32.8962Z" fill="black"/>
<path d="M339.748 42H336.601V26.727H339.748V42ZM345.265 30.6502L345.36 31.9614C346.171 30.9474 347.258 30.4404 348.622 30.4404C349.825 30.4404 350.72 30.7935 351.307 31.4998C351.895 32.2061 352.195 33.2621 352.209 34.6677V42H349.178V34.7411C349.178 34.0978 349.038 33.6327 348.758 33.346C348.479 33.0523 348.013 32.9055 347.363 32.9055C346.51 32.9055 345.87 33.2691 345.444 33.9964V42H342.412V30.6502H345.265ZM360.412 36.6817H354.507V34.2376H360.412V36.6817ZM363.045 42V26.727H368.395C370.248 26.727 371.654 27.0837 372.612 27.797C373.57 28.5033 374.049 29.5418 374.049 30.9124C374.049 31.6607 373.857 32.3215 373.472 32.895C373.087 33.4614 372.552 33.8775 371.867 34.1432C372.65 34.339 373.266 34.7342 373.713 35.3286C374.168 35.923 374.395 36.6503 374.395 37.5104C374.395 38.979 373.926 40.0909 372.989 40.8461C372.052 41.6014 370.717 41.986 368.982 42H363.045ZM366.192 35.3496V39.472H368.888C369.629 39.472 370.206 39.2972 370.619 38.9475C371.038 38.5909 371.248 38.1013 371.248 37.479C371.248 36.0803 370.524 35.3705 369.077 35.3496H366.192ZM366.192 33.1257H368.521C370.108 33.0978 370.902 32.4649 370.902 31.2271C370.902 30.5348 370.699 30.0383 370.294 29.7376C369.895 29.4299 369.262 29.276 368.395 29.276H366.192V33.1257ZM383.364 40.8461C382.615 41.7552 381.58 42.2098 380.259 42.2098C379.042 42.2098 378.112 41.8601 377.468 41.1608C376.832 40.4615 376.507 39.437 376.493 38.0874V30.6502H379.524V37.9825C379.524 39.1643 380.063 39.7552 381.14 39.7552C382.168 39.7552 382.874 39.3986 383.259 38.6853V30.6502H386.301V42H383.448L383.364 40.8461ZM398.815 36.43C398.815 38.2482 398.427 39.6678 397.651 40.6888C396.874 41.7028 395.79 42.2098 394.399 42.2098C393.168 42.2098 392.185 41.7378 391.451 40.7937L391.315 42H388.588V25.8879H391.619V31.6677C392.318 30.8495 393.238 30.4404 394.378 30.4404C395.762 30.4404 396.846 30.9509 397.63 31.9719C398.42 32.9859 398.815 34.416 398.815 36.2622V36.43ZM395.783 36.2097C395.783 35.0628 395.602 34.2272 395.238 33.7027C394.874 33.1712 394.332 32.9055 393.612 32.9055C392.647 32.9055 391.983 33.3006 391.619 34.0908V38.5699C391.99 39.3671 392.661 39.7657 393.633 39.7657C394.612 39.7657 395.255 39.2832 395.563 38.3181C395.71 37.8566 395.783 37.1538 395.783 36.2097ZM410.92 36.43C410.92 38.2482 410.532 39.6678 409.756 40.6888C408.979 41.7028 407.895 42.2098 406.504 42.2098C405.273 42.2098 404.291 41.7378 403.556 40.7937L403.42 42H400.693V25.8879H403.724V31.6677C404.423 30.8495 405.343 30.4404 406.483 30.4404C407.868 30.4404 408.951 30.9509 409.735 31.9719C410.525 32.9859 410.92 34.416 410.92 36.2622V36.43ZM407.889 36.2097C407.889 35.0628 407.707 34.2272 407.343 33.7027C406.979 33.1712 406.437 32.9055 405.717 32.9055C404.752 32.9055 404.088 33.3006 403.724 34.0908V38.5699C404.095 39.3671 404.766 39.7657 405.738 39.7657C406.717 39.7657 407.361 39.2832 407.668 38.3181C407.815 37.8566 407.889 37.1538 407.889 36.2097ZM415.997 42H412.955V25.8879H415.997V42ZM423.728 42.2098C422.064 42.2098 420.707 41.6993 419.658 40.6783C418.616 39.6573 418.095 38.2971 418.095 36.5978V36.3041C418.095 35.1642 418.315 34.1467 418.756 33.2516C419.196 32.3495 419.819 31.6572 420.623 31.1747C421.434 30.6851 422.357 30.4404 423.392 30.4404C424.945 30.4404 426.165 30.9299 427.053 31.9089C427.948 32.888 428.396 34.2761 428.396 36.0733V37.3111H421.168C421.266 38.0524 421.56 38.6468 422.05 39.0944C422.546 39.5419 423.172 39.7657 423.927 39.7657C425.095 39.7657 426.008 39.3426 426.665 38.4965L428.155 40.1643C427.7 40.8077 427.085 41.3112 426.308 41.6748C425.532 42.0315 424.672 42.2098 423.728 42.2098ZM423.382 32.895C422.78 32.895 422.291 33.0978 421.913 33.5034C421.543 33.909 421.305 34.4894 421.2 35.2447H425.417V35.0034C425.403 34.3321 425.221 33.8146 424.871 33.4509C424.522 33.0803 424.025 32.895 423.382 32.895Z" fill="black"/>
<defs>
<filter id="filter0_d" x="127.997" y="13" width="37.7762" height="42.0132" filterUnits="userSpaceOnUse" color-interpolation-filters="sRGB">
<feFlood flood-opacity="0" result="BackgroundImageFix"/>
<feColorMatrix in="SourceAlpha" type="matrix" values="0 0 0 0 0 0 0 0 0 0 0 0 0 0 0 0 0 0 127 0"/>
<feOffset dy="4"/>
<feGaussianBlur stdDeviation="2"/>
<feColorMatrix type="matrix" values="0 0 0 0 0 0 0 0 0 0 0 0 0 0 0 0 0 0 0.25 0"/>
<feBlend mode="normal" in2="BackgroundImageFix" result="effect1_dropShadow"/>
<feBlend mode="normal" in="SourceGraphic" in2="effect1_dropShadow" result="shape"/>
</filter>
<filter id="filter1_d" x="287" y="17" width="37.7762" height="42.0132" filterUnits="userSpaceOnUse" color-interpolation-filters="sRGB">
<feFlood flood-opacity="0" result="BackgroundImageFix"/>
<feColorMatrix in="SourceAlpha" type="matrix" values="0 0 0 0 0 0 0 0 0 0 0 0 0 0 0 0 0 0 127 0"/>
<feOffset dy="4"/>
<feGaussianBlur stdDeviation="2"/>
<feColorMatrix type="matrix" values="0 0 0 0 0 0 0 0 0 0 0 0 0 0 0 0 0 0 0.25 0"/>
<feBlend mode="normal" in2="BackgroundImageFix" result="effect1_dropShadow"/>
<feBlend mode="normal" in="SourceGraphic" in2="effect1_dropShadow" result="shape"/>
</filter>
</defs>
</svg>
